<mxfile host="Electron" modified="2023-06-14T19:47:17.197Z" agent="Mozilla/5.0 (Macintosh; Intel Mac OS X 10_15_7) AppleWebKit/537.36 (KHTML, like Gecko) draw.io/21.3.7 Chrome/112.0.5615.204 Electron/24.5.0 Safari/537.36" etag="Zv3r3RUIRX_QU4VPP0cW" version="21.3.7" type="device">
  <diagram name="Page-1" id="nH6oEfS4ZLw5LoVRzwua">
    <mxGraphModel dx="1080" dy="2728" grid="1" gridSize="10" guides="1" tooltips="1" connect="1" arrows="1" fold="1" page="1" pageScale="1" pageWidth="850" pageHeight="1100" math="0" shadow="0">
      <root>
        <mxCell id="0" />
        <mxCell id="1" parent="0" />
        <mxCell id="6nxW2KRL_DRjk5Dhcf5q-1" value="1. Database Connectivity issues&lt;br&gt;2. Syntax and Semantec Errors&lt;br&gt;&lt;div style=&quot;&quot;&gt;&lt;span style=&quot;background-color: initial;&quot;&gt;3. Bugs in Queries&lt;/span&gt;&lt;/div&gt;" style="whiteSpace=wrap;html=1;align=left;strokeWidth=0;" vertex="1" parent="1">
          <mxGeometry x="375" y="100" width="180" height="60" as="geometry" />
        </mxCell>
        <mxCell id="6nxW2KRL_DRjk5Dhcf5q-2" value="" style="rounded=0;whiteSpace=wrap;html=1;" vertex="1" parent="1">
          <mxGeometry x="320" y="210" width="290" height="220" as="geometry" />
        </mxCell>
        <mxCell id="6nxW2KRL_DRjk5Dhcf5q-3" value="" style="shape=cylinder3;whiteSpace=wrap;html=1;boundedLbl=1;backgroundOutline=1;size=15;" vertex="1" parent="1">
          <mxGeometry x="478" y="230" width="110" height="160" as="geometry" />
        </mxCell>
        <mxCell id="6nxW2KRL_DRjk5Dhcf5q-5" value="" style="shape=cylinder3;whiteSpace=wrap;html=1;boundedLbl=1;backgroundOutline=1;size=15;" vertex="1" parent="1">
          <mxGeometry x="490" y="270" width="50" height="50" as="geometry" />
        </mxCell>
        <mxCell id="6nxW2KRL_DRjk5Dhcf5q-6" value="" style="shape=cylinder3;whiteSpace=wrap;html=1;boundedLbl=1;backgroundOutline=1;size=15;" vertex="1" parent="1">
          <mxGeometry x="490" y="330" width="50" height="50" as="geometry" />
        </mxCell>
        <mxCell id="6nxW2KRL_DRjk5Dhcf5q-7" value="" style="whiteSpace=wrap;html=1;aspect=fixed;" vertex="1" parent="1">
          <mxGeometry x="50" y="250" width="120" height="120" as="geometry" />
        </mxCell>
        <mxCell id="6nxW2KRL_DRjk5Dhcf5q-8" value="pc" style="text;html=1;align=center;verticalAlign=middle;resizable=0;points=[];autosize=1;strokeColor=none;fillColor=none;" vertex="1" parent="1">
          <mxGeometry x="90" y="380" width="40" height="30" as="geometry" />
        </mxCell>
        <mxCell id="6nxW2KRL_DRjk5Dhcf5q-10" style="rounded=0;orthogonalLoop=1;jettySize=auto;html=1;" edge="1" parent="1" source="6nxW2KRL_DRjk5Dhcf5q-9" target="6nxW2KRL_DRjk5Dhcf5q-5">
          <mxGeometry relative="1" as="geometry" />
        </mxCell>
        <mxCell id="6nxW2KRL_DRjk5Dhcf5q-16" value="JDBC" style="edgeLabel;html=1;align=center;verticalAlign=middle;resizable=0;points=[];" vertex="1" connectable="0" parent="6nxW2KRL_DRjk5Dhcf5q-10">
          <mxGeometry x="-0.4104" y="-1" relative="1" as="geometry">
            <mxPoint as="offset" />
          </mxGeometry>
        </mxCell>
        <mxCell id="6nxW2KRL_DRjk5Dhcf5q-9" value="" style="rounded=0;whiteSpace=wrap;html=1;" vertex="1" parent="1">
          <mxGeometry x="80" y="265" width="60" height="35" as="geometry" />
        </mxCell>
        <mxCell id="6nxW2KRL_DRjk5Dhcf5q-13" style="rounded=0;orthogonalLoop=1;jettySize=auto;html=1;entryX=0;entryY=0.5;entryDx=0;entryDy=0;entryPerimeter=0;" edge="1" parent="1" source="6nxW2KRL_DRjk5Dhcf5q-11" target="6nxW2KRL_DRjk5Dhcf5q-5">
          <mxGeometry relative="1" as="geometry">
            <Array as="points">
              <mxPoint x="490" y="295" />
            </Array>
          </mxGeometry>
        </mxCell>
        <mxCell id="6nxW2KRL_DRjk5Dhcf5q-17" value="JDBC" style="edgeLabel;html=1;align=center;verticalAlign=middle;resizable=0;points=[];" vertex="1" connectable="0" parent="6nxW2KRL_DRjk5Dhcf5q-13">
          <mxGeometry x="-0.6318" y="3" relative="1" as="geometry">
            <mxPoint as="offset" />
          </mxGeometry>
        </mxCell>
        <mxCell id="6nxW2KRL_DRjk5Dhcf5q-11" value="App server" style="ellipse;shape=cloud;whiteSpace=wrap;html=1;" vertex="1" parent="1">
          <mxGeometry x="100" y="430" width="120" height="80" as="geometry" />
        </mxCell>
        <mxCell id="6nxW2KRL_DRjk5Dhcf5q-14" style="rounded=0;orthogonalLoop=1;jettySize=auto;html=1;entryX=0;entryY=0;entryDx=0;entryDy=30;entryPerimeter=0;" edge="1" parent="1" source="6nxW2KRL_DRjk5Dhcf5q-12" target="6nxW2KRL_DRjk5Dhcf5q-6">
          <mxGeometry relative="1" as="geometry" />
        </mxCell>
        <mxCell id="6nxW2KRL_DRjk5Dhcf5q-18" value="ODBC" style="edgeLabel;html=1;align=center;verticalAlign=middle;resizable=0;points=[];" vertex="1" connectable="0" parent="6nxW2KRL_DRjk5Dhcf5q-14">
          <mxGeometry x="-0.4802" y="1" relative="1" as="geometry">
            <mxPoint as="offset" />
          </mxGeometry>
        </mxCell>
        <mxCell id="6nxW2KRL_DRjk5Dhcf5q-12" value="Graph" style="rounded=0;whiteSpace=wrap;html=1;" vertex="1" parent="1">
          <mxGeometry x="210" y="530" width="120" height="60" as="geometry" />
        </mxCell>
        <mxCell id="6nxW2KRL_DRjk5Dhcf5q-15" value="Postgres Database Server" style="text;html=1;strokeColor=none;fillColor=none;align=center;verticalAlign=middle;whiteSpace=wrap;rounded=0;fontSize=8;" vertex="1" parent="1">
          <mxGeometry x="478" y="400" width="110" height="20" as="geometry" />
        </mxCell>
        <mxCell id="6nxW2KRL_DRjk5Dhcf5q-19" value="&lt;b&gt;Database Connectivity Information&lt;/b&gt;&lt;br&gt;1. Host Name&lt;br&gt;2. Post&lt;br&gt;3. Database name&lt;br&gt;4. Username&lt;br&gt;5. Password" style="text;html=1;align=left;verticalAlign=middle;resizable=0;points=[];autosize=1;strokeColor=none;fillColor=none;" vertex="1" parent="1">
          <mxGeometry x="620" y="195" width="220" height="100" as="geometry" />
        </mxCell>
        <mxCell id="6nxW2KRL_DRjk5Dhcf5q-20" value="&lt;b&gt;Database Connectivity issues&lt;/b&gt;&lt;br&gt;1. Connection Timeout&lt;br&gt;2. Host Unreachable&lt;br&gt;3. Insufficient Permissions or privileges&lt;br&gt;4. Access Denied&lt;br&gt;5. Incorrect Username and Password" style="text;html=1;align=left;verticalAlign=middle;resizable=0;points=[];autosize=1;" vertex="1" parent="1">
          <mxGeometry x="620" y="335" width="230" height="100" as="geometry" />
        </mxCell>
        <mxCell id="6nxW2KRL_DRjk5Dhcf5q-21" value="" style="rounded=0;whiteSpace=wrap;html=1;" vertex="1" parent="1">
          <mxGeometry x="135" y="670" width="580" height="330" as="geometry" />
        </mxCell>
        <mxCell id="6nxW2KRL_DRjk5Dhcf5q-22" value="PC or MAC" style="text;html=1;strokeColor=none;fillColor=none;align=center;verticalAlign=middle;whiteSpace=wrap;rounded=0;" vertex="1" parent="1">
          <mxGeometry x="388" y="1017" width="75" height="30" as="geometry" />
        </mxCell>
        <mxCell id="6nxW2KRL_DRjk5Dhcf5q-23" value="" style="shape=cylinder3;whiteSpace=wrap;html=1;boundedLbl=1;backgroundOutline=1;size=15;" vertex="1" parent="1">
          <mxGeometry x="550" y="700" width="140" height="190" as="geometry" />
        </mxCell>
        <mxCell id="6nxW2KRL_DRjk5Dhcf5q-24" value="postgres" style="shape=cylinder3;whiteSpace=wrap;html=1;boundedLbl=1;backgroundOutline=1;size=15;" vertex="1" parent="1">
          <mxGeometry x="570" y="745" width="60" height="55" as="geometry" />
        </mxCell>
        <mxCell id="6nxW2KRL_DRjk5Dhcf5q-25" value="retail_db" style="shape=cylinder3;whiteSpace=wrap;html=1;boundedLbl=1;backgroundOutline=1;size=15;" vertex="1" parent="1">
          <mxGeometry x="570" y="807.5" width="60" height="55" as="geometry" />
        </mxCell>
        <mxCell id="6nxW2KRL_DRjk5Dhcf5q-26" value="Postgres Database Server" style="text;html=1;strokeColor=none;fillColor=none;align=center;verticalAlign=middle;whiteSpace=wrap;rounded=0;fontSize=7;" vertex="1" parent="1">
          <mxGeometry x="574" y="890" width="92" height="30" as="geometry" />
        </mxCell>
        <mxCell id="6nxW2KRL_DRjk5Dhcf5q-28" value="" style="rounded=0;whiteSpace=wrap;html=1;" vertex="1" parent="1">
          <mxGeometry x="190" y="720" width="160" height="140" as="geometry" />
        </mxCell>
        <mxCell id="6nxW2KRL_DRjk5Dhcf5q-29" value="PostgreSQL 14" style="rounded=0;whiteSpace=wrap;html=1;" vertex="1" parent="1">
          <mxGeometry x="210" y="735" width="120" height="45" as="geometry" />
        </mxCell>
        <mxCell id="6nxW2KRL_DRjk5Dhcf5q-30" value="postgres retail_user" style="rounded=0;whiteSpace=wrap;html=1;" vertex="1" parent="1">
          <mxGeometry x="210" y="800" width="120" height="45" as="geometry" />
        </mxCell>
        <mxCell id="6nxW2KRL_DRjk5Dhcf5q-31" value="pdAdmin" style="text;html=1;strokeColor=none;fillColor=none;align=center;verticalAlign=middle;whiteSpace=wrap;rounded=0;" vertex="1" parent="1">
          <mxGeometry x="240" y="862.5" width="60" height="30" as="geometry" />
        </mxCell>
        <mxCell id="6nxW2KRL_DRjk5Dhcf5q-32" value="" style="shape=cylinder3;whiteSpace=wrap;html=1;boundedLbl=1;backgroundOutline=1;size=15;" vertex="1" parent="1">
          <mxGeometry x="980" y="670" width="365" height="330" as="geometry" />
        </mxCell>
        <mxCell id="6nxW2KRL_DRjk5Dhcf5q-33" value="postgres" style="rounded=0;whiteSpace=wrap;html=1;" vertex="1" parent="1">
          <mxGeometry x="1010" y="727.5" width="120" height="60" as="geometry" />
        </mxCell>
        <mxCell id="6nxW2KRL_DRjk5Dhcf5q-34" value="retail_user" style="rounded=0;whiteSpace=wrap;html=1;" vertex="1" parent="1">
          <mxGeometry x="1010" y="807.5" width="120" height="60" as="geometry" />
        </mxCell>
        <mxCell id="6nxW2KRL_DRjk5Dhcf5q-36" value="sms_user" style="rounded=0;whiteSpace=wrap;html=1;" vertex="1" parent="1">
          <mxGeometry x="1010" y="890" width="120" height="60" as="geometry" />
        </mxCell>
        <mxCell id="6nxW2KRL_DRjk5Dhcf5q-40" style="rounded=0;orthogonalLoop=1;jettySize=auto;html=1;" edge="1" parent="1" source="6nxW2KRL_DRjk5Dhcf5q-37" target="6nxW2KRL_DRjk5Dhcf5q-33">
          <mxGeometry relative="1" as="geometry" />
        </mxCell>
        <mxCell id="6nxW2KRL_DRjk5Dhcf5q-37" value="postgres" style="shape=cylinder3;whiteSpace=wrap;html=1;boundedLbl=1;backgroundOutline=1;size=15;" vertex="1" parent="1">
          <mxGeometry x="1230" y="722.5" width="90" height="70" as="geometry" />
        </mxCell>
        <mxCell id="6nxW2KRL_DRjk5Dhcf5q-41" style="rounded=0;orthogonalLoop=1;jettySize=auto;html=1;entryX=1;entryY=0.5;entryDx=0;entryDy=0;" edge="1" parent="1" source="6nxW2KRL_DRjk5Dhcf5q-38" target="6nxW2KRL_DRjk5Dhcf5q-33">
          <mxGeometry relative="1" as="geometry" />
        </mxCell>
        <mxCell id="6nxW2KRL_DRjk5Dhcf5q-43" style="rounded=0;orthogonalLoop=1;jettySize=auto;html=1;entryX=1;entryY=0.5;entryDx=0;entryDy=0;" edge="1" parent="1" source="6nxW2KRL_DRjk5Dhcf5q-38" target="6nxW2KRL_DRjk5Dhcf5q-34">
          <mxGeometry relative="1" as="geometry" />
        </mxCell>
        <mxCell id="6nxW2KRL_DRjk5Dhcf5q-38" value="retail_db" style="shape=cylinder3;whiteSpace=wrap;html=1;boundedLbl=1;backgroundOutline=1;size=15;" vertex="1" parent="1">
          <mxGeometry x="1230" y="802.5" width="90" height="70" as="geometry" />
        </mxCell>
        <mxCell id="6nxW2KRL_DRjk5Dhcf5q-42" style="rounded=0;orthogonalLoop=1;jettySize=auto;html=1;entryX=1;entryY=0.5;entryDx=0;entryDy=0;" edge="1" parent="1" source="6nxW2KRL_DRjk5Dhcf5q-39" target="6nxW2KRL_DRjk5Dhcf5q-33">
          <mxGeometry relative="1" as="geometry" />
        </mxCell>
        <mxCell id="6nxW2KRL_DRjk5Dhcf5q-44" style="rounded=0;orthogonalLoop=1;jettySize=auto;html=1;entryX=1;entryY=0.5;entryDx=0;entryDy=0;" edge="1" parent="1" source="6nxW2KRL_DRjk5Dhcf5q-39" target="6nxW2KRL_DRjk5Dhcf5q-36">
          <mxGeometry relative="1" as="geometry" />
        </mxCell>
        <mxCell id="6nxW2KRL_DRjk5Dhcf5q-39" value="sms_db" style="shape=cylinder3;whiteSpace=wrap;html=1;boundedLbl=1;backgroundOutline=1;size=15;" vertex="1" parent="1">
          <mxGeometry x="1230" y="885" width="90" height="70" as="geometry" />
        </mxCell>
        <mxCell id="6nxW2KRL_DRjk5Dhcf5q-45" value="&lt;b&gt;Troubleshooting and Debugging SQL Issues&lt;/b&gt;" style="text;html=1;strokeColor=none;fillColor=none;align=center;verticalAlign=middle;whiteSpace=wrap;rounded=0;" vertex="1" parent="1">
          <mxGeometry x="335" y="60" width="260" height="30" as="geometry" />
        </mxCell>
      </root>
    </mxGraphModel>
  </diagram>
</mxfile>
